<svg width="24" height="24" viewBox="0 0 24 24" fill="none" xmlns="http://www.w3.org/2000/svg">
<mask id="mask0_1065_242" style="mask-type:alpha" maskUnits="userSpaceOnUse" x="0" y="0" width="24" height="24">
<rect width="24" height="24" fill="#D9D9D9"/>
</mask>
<g mask="url(#mask0_1065_242)">
<path d="M6.7997 18.25L11.9999 16.0498L17.2001 18.25V4.7248H6.7997V18.25ZM6.1499 20.95C5.7831 21.1164 5.4331 21.0872 5.0999 20.8624C4.7667 20.6372 4.6001 20.3246 4.6001 19.9246V4.7248C4.6001 4.108 4.8167 3.583 5.2499 3.1498C5.6831 2.7166 6.1997 2.5 6.7997 2.5H17.2001C17.8001 2.5 18.3167 2.7166 18.7499 3.1498C19.1831 3.583 19.3997 4.108 19.3997 4.7248V19.9246C19.3997 20.3246 19.2331 20.6372 18.8999 20.8624C18.5667 21.0872 18.2167 21.1164 17.8499 20.95L11.9999 18.4498L6.1499 20.95Z" fill="#1C1B1F"/>
</g>
</svg>
