<svg width="16" height="16" viewBox="0 0 16 16" fill="none" xmlns="http://www.w3.org/2000/svg">
<g clip-path="url(#clip0_165_123)">
<path d="M8.00001 0.959999C7.29376 0.959999 6.72001 1.53375 6.72001 2.24C6.72001 2.835 7.13001 3.33125 7.68001 3.475V4.48H4.81001C3.39251 4.48 2.24001 5.6325 2.24001 7.05V8.32H0.640015V12.16H2.24001V15.04H13.76V12.16H15.36V8.32H13.76V7.05C13.76 5.6325 12.6075 4.48 11.19 4.48H8.32001V3.475C8.87126 3.33125 9.28001 2.835 9.28001 2.24C9.28001 1.53375 8.70626 0.959999 8.00001 0.959999ZM8.00001 1.6C8.35251 1.6 8.64001 1.8875 8.64001 2.24C8.64001 2.5925 8.35251 2.88 8.00001 2.88C7.64751 2.88 7.36001 2.5925 7.36001 2.24C7.36001 1.8875 7.64751 1.6 8.00001 1.6ZM4.81001 5.12H11.19C12.2538 5.12 13.12 5.98625 13.12 7.05V14.4H11.2V11.84H4.80001V14.4H2.88001V7.05C2.88001 5.98625 3.74626 5.12 4.81001 5.12ZM5.92001 7.04C5.12626 7.04 4.48001 7.68625 4.48001 8.48C4.48001 9.27375 5.12626 9.92 5.92001 9.92C6.71376 9.92 7.36001 9.27375 7.36001 8.48C7.36001 7.68625 6.71376 7.04 5.92001 7.04ZM10.08 7.04C9.28626 7.04 8.64001 7.68625 8.64001 8.48C8.64001 9.27375 9.28626 9.92 10.08 9.92C10.8738 9.92 11.52 9.27375 11.52 8.48C11.52 7.68625 10.8738 7.04 10.08 7.04ZM5.92001 7.68C6.36126 7.68 6.72001 8.03875 6.72001 8.48C6.72001 8.92125 6.36126 9.28 5.92001 9.28C5.47876 9.28 5.12001 8.92125 5.12001 8.48C5.12001 8.03875 5.47876 7.68 5.92001 7.68ZM10.08 7.68C10.5213 7.68 10.88 8.03875 10.88 8.48C10.88 8.92125 10.5213 9.28 10.08 9.28C9.63876 9.28 9.28001 8.92125 9.28001 8.48C9.28001 8.03875 9.63876 7.68 10.08 7.68ZM1.28001 8.96H2.24001V11.52H1.28001V8.96ZM13.76 8.96H14.72V11.52H13.76V8.96ZM5.44001 12.48H6.72001V14.4H5.44001V12.48ZM7.36001 12.48H8.64001V14.4H7.36001V12.48ZM9.28001 12.48H10.56V14.4H9.28001V12.48Z" fill="#170045"/>
</g>
<defs>
<clipPath id="clip0_165_123">
<rect width="16" height="16" fill="white"/>
</clipPath>
</defs>
</svg>
