<svg width="32" height="32" viewBox="0 0 32 32" fill="none" xmlns="http://www.w3.org/2000/svg">
<mask id="mask0_1007_775" style="mask-type:alpha" maskUnits="userSpaceOnUse" x="0" y="0" width="32" height="32">
<rect width="32" height="32" fill="#D9D9D9"/>
</mask>
<g mask="url(#mask0_1007_775)">
<path d="M16 17.8668L9.2333 24.6335C8.96664 24.9001 8.65552 25.0335 8.29997 25.0335C7.94441 25.0335 7.6333 24.9001 7.36664 24.6335C7.09997 24.3668 6.96663 24.0557 6.96663 23.7001C6.96663 23.3446 7.09997 23.0335 7.36664 22.7668L14.1333 16.0001L7.36664 9.23346C7.09997 8.9668 6.96663 8.65569 6.96663 8.30013C6.96663 7.94457 7.09997 7.63346 7.36664 7.3668C7.6333 7.10013 7.94441 6.9668 8.29997 6.9668C8.65552 6.9668 8.96664 7.10013 9.2333 7.3668L16 14.1335L22.7666 7.3668C23.0333 7.10013 23.3444 6.9668 23.7 6.9668C24.0555 6.9668 24.3666 7.10013 24.6333 7.3668C24.9 7.63346 25.0333 7.94457 25.0333 8.30013C25.0333 8.65569 24.9 8.9668 24.6333 9.23346L17.8666 16.0001L24.6333 22.7668C24.9 23.0335 25.0333 23.3446 25.0333 23.7001C25.0333 24.0557 24.9 24.3668 24.6333 24.6335C24.3666 24.9001 24.0555 25.0335 23.7 25.0335C23.3444 25.0335 23.0333 24.9001 22.7666 24.6335L16 17.8668Z" fill="black"/>
</g>
</svg>
