<svg width="24" height="24" viewBox="0 0 24 24" fill="none" xmlns="http://www.w3.org/2000/svg">
<mask id="mask0_1065_229" style="mask-type:alpha" maskUnits="userSpaceOnUse" x="0" y="0" width="24" height="24">
<rect width="24" height="24" fill="#D9D9D9"/>
</mask>
<g mask="url(#mask0_1065_229)">
<path d="M10.5001 20.2002L9.02534 18.825C7.05854 17.0418 5.32934 15.2876 3.83774 13.5624C2.34614 11.8376 1.60034 9.9834 1.60034 7.9998C1.60034 6.3666 2.14614 5 3.23774 3.9C4.32934 2.8 5.69174 2.25 7.32494 2.25C8.17494 2.25 9.00414 2.4292 9.81254 2.7876C10.6209 3.146 11.3417 3.7252 11.9749 4.5252C12.6917 3.7252 13.4377 3.146 14.2129 2.7876C14.9877 2.4292 15.8001 2.25 16.6501 2.25C18.2833 2.25 19.6499 2.8 20.7499 3.9C21.8499 5 22.3999 6.3666 22.3999 7.9998C22.3999 9.9834 21.6499 11.8376 20.1499 13.5624C18.6499 15.2876 16.9167 17.0502 14.9503 18.8502L13.5001 20.2002C13.0669 20.6002 12.5627 20.8002 11.9875 20.8002C11.4127 20.8002 10.9169 20.6002 10.5001 20.2002Z" fill="#EE8543"/>
</g>
</svg>
