<svg width="103" height="90" viewBox="0 0 103 90" fill="none" xmlns="http://www.w3.org/2000/svg">
<path d="M4.83886 36.9723C4.78285 21.9311 15.2709 19.3388 19.7828 18.9225C21.5536 18.7674 23.2908 18.3455 24.9355 17.6711C29.5482 15.754 34.554 12.8413 37.9411 10.7357C39.018 10.0705 39.9063 9.14008 40.5208 8.03342C41.1353 6.92677 41.4554 5.68092 41.4507 4.41512V1.03698C41.407 -0.340697 39.4061 -0.348012 39.3608 1.03698V4.41512C39.3643 5.32536 39.1342 6.22128 38.6925 7.01716C38.2508 7.81303 37.6122 8.48222 36.8378 8.96069C33.5163 11.0255 28.6163 13.8781 24.1334 15.7412C22.6833 16.3349 21.1518 16.7058 19.5908 16.8414C9.73679 17.6608 2.45531 24.9808 2.74894 36.9673C2.74351 37.2676 2.67517 41.3609 2.93703 44.5733C3.05137 45.9568 2.94955 47.3496 2.63525 48.7017C1.13277 55.2053 0.320175 61.8492 0.210944 68.5232C0.201748 69.3748 0.00843081 71.1356 0.00634089 71.1523C-0.00875398 71.2887 0.00316538 71.4267 0.0414186 71.5585C0.0796718 71.6903 0.14351 71.8133 0.229287 71.9204C0.315065 72.0275 0.421102 72.1167 0.541345 72.1829C0.661588 72.249 0.793682 72.2908 0.930085 72.3059C1.06649 72.321 1.20453 72.3091 1.33632 72.2709C1.46812 72.2326 1.59109 72.1688 1.69822 72.083C1.80534 71.9972 1.89452 71.8912 1.96067 71.7709C2.02681 71.6507 2.06863 71.5186 2.08372 71.3822C2.09208 71.3059 2.29041 69.5013 2.30086 68.5466C2.40773 62.0246 3.2019 55.532 4.6702 49.1766C5.03374 47.6134 5.15164 46.0031 5.01964 44.4036C4.76132 41.2071 4.83865 37.0619 4.83886 36.9723Z" fill="black"/>
<path d="M102.516 71.153C102.514 71.1354 102.32 69.3766 102.311 68.5239C102.202 61.8499 101.389 55.206 99.8868 48.7024C99.5724 47.3503 99.4707 45.9575 99.5853 44.574C99.8478 41.3616 99.7794 37.2683 99.7734 36.968C100.059 24.9741 92.8012 17.6692 82.9318 16.8421C81.3707 16.7063 79.8392 16.3354 78.3891 15.7417C73.9069 13.8788 69.0066 11.026 65.6849 8.96119C64.9105 8.48274 64.2719 7.81356 63.8301 7.01768C63.3883 6.22181 63.1582 5.32587 63.1617 4.41561V1.03663C63.1199 -0.338115 61.1201 -0.352954 61.0718 1.03663V4.41478C61.0671 5.68059 61.3874 6.92643 62.0019 8.03308C62.6164 9.13973 63.5047 10.0702 64.5816 10.7353C67.969 12.8411 72.975 15.7538 77.587 17.6707C79.2317 18.3452 80.9689 18.7671 82.7397 18.9222C87.2539 19.3282 97.7612 21.9619 97.6837 36.9956C97.6837 37.0374 97.7601 41.2416 97.5018 44.4037C97.3696 46.0032 97.4875 47.6136 97.8513 49.1769C99.3193 55.5324 100.114 62.0249 100.221 68.5469C100.231 69.5019 100.43 71.3055 100.438 71.3825C100.614 72.7131 102.613 72.5716 102.516 71.153Z" fill="black"/>
<path d="M46.4412 60.4012C37.3168 64.0686 27.8673 64.3451 22.3681 61.1055C18.8662 59.0426 16.3366 48.3077 15.6576 44.3454C15.6108 44.0723 15.4574 43.8289 15.2311 43.6688C15.0049 43.5087 14.7243 43.445 14.4511 43.4918C14.178 43.5386 13.9346 43.692 13.7745 43.9182C13.6144 44.1445 13.5507 44.425 13.5975 44.6982C13.7856 45.8002 15.0855 53.0102 17.592 58.1613C17.587 59.3454 17.5907 67.0729 18.503 69.861L20.052 88.2147C20.0636 88.3514 20.1019 88.4846 20.1649 88.6065C20.2279 88.7284 20.3143 88.8367 20.4192 88.9253C20.524 89.0138 20.6453 89.0808 20.776 89.1225C20.9068 89.1642 21.0445 89.1797 21.1812 89.1681C21.318 89.1566 21.4511 89.1182 21.573 89.0552C21.6949 88.9922 21.8032 88.9058 21.8918 88.801C21.9803 88.6961 22.0473 88.5749 22.089 88.4441C22.1307 88.3134 22.1462 88.1757 22.1346 88.0389L20.5753 69.5641C20.5678 69.5208 20.5615 69.4777 20.5513 69.4345C20.0299 67.9506 19.8154 64.5537 19.7289 61.5444C20.179 62.0797 20.7118 62.5394 21.3072 62.9062C28.9049 67.0955 38.6389 65.6879 47.2203 62.3405C48.4818 61.7896 47.7439 59.9262 46.4412 60.4012Z" fill="black"/>
<path d="M46.783 66.1181C43.4021 66.2755 37.0858 70.0471 36.3777 70.4775C36.2582 70.5475 36.1539 70.6406 36.0707 70.7513C35.9876 70.8621 35.9272 70.9882 35.8933 71.1225C35.8593 71.2567 35.8523 71.3964 35.8728 71.5334C35.8933 71.6703 35.9408 71.8019 36.0125 71.9203C36.0843 72.0388 36.1789 72.1418 36.2908 72.2233C36.4027 72.3049 36.5297 72.3634 36.6645 72.3955C36.7992 72.4275 36.9389 72.4325 37.0756 72.41C37.2122 72.3876 37.3431 72.3382 37.4605 72.2648C39.2616 71.174 44.4651 68.3182 46.8802 68.2057C48.2535 68.1018 48.1682 66.0966 46.783 66.1181Z" fill="black"/>
<path d="M88.0705 43.4925C87.7974 43.4458 87.5169 43.5094 87.2907 43.6694C87.0645 43.8294 86.9111 44.0727 86.8642 44.3459C86.1852 48.3081 83.6556 59.043 80.1535 61.1059C74.6543 64.3453 65.2049 64.069 56.0806 60.4016C55.9529 60.3486 55.816 60.3215 55.6777 60.3217C55.5395 60.322 55.4027 60.3497 55.2752 60.4032C55.1478 60.4567 55.0322 60.535 54.9352 60.6335C54.8382 60.7319 54.7617 60.8487 54.7102 60.977C54.6586 61.1052 54.633 61.2425 54.6349 61.3807C54.6367 61.5189 54.666 61.6554 54.721 61.7822C54.7759 61.9091 54.8555 62.0237 54.9551 62.1196C55.0547 62.2155 55.1724 62.2906 55.3012 62.3407C63.8755 65.6887 73.6256 67.095 81.2156 62.9068C81.811 62.5399 82.3439 62.08 82.7939 61.5446C82.7074 64.5501 82.4932 67.9515 81.9728 69.4297C81.9138 69.5887 80.4193 87.8782 80.388 88.0394C80.3136 89.4158 82.3107 89.5909 82.4708 88.2151L84.0201 69.8606C84.9323 67.0714 84.9359 59.3439 84.9308 58.1613C87.4375 53.0102 88.7366 45.8006 88.9253 44.6986C88.9484 44.5633 88.9446 44.4248 88.9142 44.2909C88.8837 44.157 88.8272 44.0305 88.7478 43.9185C88.6684 43.8065 88.5678 43.7112 88.4516 43.6381C88.3353 43.565 88.2059 43.5156 88.0705 43.4925Z" fill="black"/>
<path d="M66.1455 70.4776C66.6534 70.7804 54.8691 63.6168 54.6476 67.1128C54.6347 67.3897 54.7324 67.6603 54.919 67.8651C55.1056 68.07 55.366 68.1923 55.6428 68.2052C58.0579 68.3177 63.2614 71.1729 65.0627 72.2643C65.1801 72.3377 65.311 72.3871 65.4476 72.4095C65.5843 72.432 65.724 72.427 65.8588 72.395C65.9935 72.3629 66.1205 72.3044 66.2324 72.2228C66.3443 72.1413 66.4389 72.0383 66.5107 71.9198C66.5824 71.8014 66.6299 71.6699 66.6504 71.5329C66.6709 71.3959 66.6639 71.2563 66.63 71.122C66.596 70.9877 66.5357 70.8616 66.4525 70.7509C66.3693 70.6401 66.265 70.547 66.1455 70.477V70.4776Z" fill="black"/>
<path d="M30.6184 19.4317C29.4195 18.7531 28.3739 20.4648 29.5354 21.2193C29.0788 20.9465 40.8116 28.0742 41.0333 24.584C41.0462 24.3072 40.9486 24.0366 40.762 23.8317C40.5753 23.6268 40.315 23.5045 40.0381 23.4916C37.6234 23.3786 32.4197 20.5227 30.6184 19.4317Z" fill="black"/>
<path d="M62.4715 25.5785C65.8523 25.4213 72.1687 21.6495 72.877 21.2194C73.1122 21.0749 73.2808 20.8433 73.3459 20.575C73.4109 20.3067 73.3671 20.0235 73.2241 19.7874C73.0811 19.5512 72.8504 19.3813 72.5825 19.3147C72.3145 19.2481 72.0311 19.2902 71.7942 19.4319C69.9929 20.5228 64.7894 23.3787 62.3743 23.4909C60.996 23.6021 61.0873 25.5959 62.4715 25.5785Z" fill="black"/>
<path d="M24.9938 56.696C23.6134 56.7378 23.6121 58.7442 24.9938 58.786H27.9184C29.2988 58.7442 29.3 56.7378 27.9184 56.696H24.9938Z" fill="black"/>
<path d="M77.4186 58.786C78.7979 58.7442 78.8002 56.7378 77.4186 56.696H74.4927C74.2156 56.696 73.9498 56.8061 73.7538 57.0021C73.5578 57.1981 73.4478 57.4639 73.4478 57.741C73.4478 58.0181 73.5578 58.2839 73.7538 58.4799C73.9498 58.6759 74.2156 58.786 74.4927 58.786H77.4186Z" fill="black"/>
</svg>
