<svg width="103" height="82" viewBox="0 0 103 82" fill="none" xmlns="http://www.w3.org/2000/svg">
<path d="M97.2773 31.9848C97.7599 28.0364 103.054 1.30565 102.999 1.02229C102.949 0.771746 102.809 0.548045 102.606 0.392624C102.403 0.237203 102.151 0.160592 101.895 0.17698C101.64 0.193368 101.4 0.301644 101.218 0.481755C101.037 0.661866 100.927 0.90161 100.909 1.15658C100.894 1.26616 100.849 1.52798 100.778 1.91986C98.4037 11.2076 95.4257 17.7923 92.4714 19.4418C82.7141 24.8492 69.2203 22.8699 58.1702 18.476C58.0414 18.4236 57.9035 18.3971 57.7644 18.3981C57.6254 18.3991 57.4879 18.4276 57.3599 18.4818C57.2319 18.5361 57.1158 18.6152 57.0185 18.7144C56.9211 18.8137 56.8443 18.9312 56.7924 19.0602C56.7406 19.1892 56.7147 19.3272 56.7164 19.4663C56.718 19.6053 56.7471 19.7427 56.802 19.8704C56.8569 19.9982 56.9365 20.1139 57.0362 20.2108C57.1359 20.3077 57.2538 20.384 57.383 20.4352C69.0257 25.0761 83.221 27.0427 93.543 21.2612C95.3043 20.2237 96.8478 18.1557 98.1801 15.5958C97.2958 20.1916 96.3035 25.3238 95.3757 30.1168C95.2619 30.7045 95.1924 31.3 95.1677 31.8982C95.056 34.6219 94.4551 48.4685 93.5842 53.6863C93.2914 55.4089 93.1668 57.1558 93.2121 58.9026C93.29 61.5488 93.6038 65.3635 94.6572 68.5058C96.386 73.6551 96.9865 80.7884 96.9924 80.8598C97.0038 80.9979 97.0422 81.1325 97.1055 81.2559C97.1689 81.3792 97.2559 81.4888 97.3616 81.5785C97.4673 81.6682 97.5897 81.7362 97.7217 81.7786C97.8537 81.8211 97.9927 81.8371 98.1309 81.8257C98.2691 81.8144 98.4037 81.776 98.527 81.7126C98.6503 81.6493 98.76 81.5623 98.8497 81.4566C98.9394 81.3508 99.0074 81.2285 99.0498 81.0965C99.0922 80.9645 99.1082 80.8254 99.0969 80.6872C99.072 80.3855 98.4704 73.2299 96.6588 67.8343C95.6876 64.9368 95.3962 61.344 95.3227 58.8413C95.2812 57.2318 95.3964 55.6221 95.6667 54.0349C96.5357 48.8268 97.1193 35.8406 97.2773 31.9848Z" fill="black"/>
<path d="M46.263 19.0621C46.1586 18.8024 45.9554 18.5949 45.6981 18.485C45.4407 18.3752 45.1503 18.372 44.8906 18.4761C33.8563 22.8698 20.3273 24.8495 10.5895 19.4423C7.56809 17.6611 4.47146 10.9495 2.09146 1.02536C1.83217 -0.191461 0.0739856 -0.0765989 0.00325263 1.17506C-0.00648536 1.29164 0.00568916 1.40902 0.039147 1.52112C0.196238 2.81395 5.14079 28.1138 5.6091 30.5126C6.11036 35.3427 6.33691 47.8715 7.39411 54.0356C7.66401 55.6223 7.77906 57.2316 7.73764 58.8406C7.66416 61.3443 7.37236 64.9371 6.40152 67.834C4.58992 73.23 3.98816 80.3854 3.96345 80.6873C3.94058 80.9664 4.0295 81.2431 4.21066 81.4566C4.39181 81.6702 4.65036 81.803 4.92943 81.8258C5.2085 81.8487 5.48523 81.7598 5.69874 81.5786C5.91224 81.3975 6.04504 81.1389 6.06792 80.8599C6.07383 80.7885 6.67432 73.6552 8.40337 68.5054C9.45655 65.3632 9.77031 61.5491 9.84822 58.9018C9.89356 57.1555 9.76903 55.4088 9.4764 53.6866C8.62782 48.6054 8.04971 35.7305 7.89283 31.9057C7.86791 31.3018 7.79733 30.7006 7.68168 30.1074C6.74315 25.3001 5.74086 20.1513 4.84835 15.5455C6.19144 18.136 7.74418 20.2151 9.518 21.2607C19.8505 27.0426 34.0252 25.075 45.6782 20.4347C45.9376 20.3301 46.145 20.1268 46.2546 19.8694C46.3643 19.612 46.3673 19.3216 46.263 19.0621Z" fill="black"/>
<path d="M14.0608 38.9819C13.541 37.6912 11.6371 38.3852 12.0799 39.7127C12.1966 40.0294 14.9816 47.5163 18.5297 51.4523C18.7171 51.6603 18.9795 51.7853 19.2592 51.7998C19.5388 51.8144 19.8128 51.7172 20.0208 51.5298C20.2288 51.3423 20.3538 51.0799 20.3683 50.8003C20.3829 50.5206 20.2857 50.2467 20.0982 50.0387C16.8236 46.4061 14.0881 39.0558 14.0608 38.9819Z" fill="black"/>
<path d="M44.4761 45.8928C33.9257 45.8795 27.5283 41.0453 27.447 40.9831C27.3374 40.898 27.2122 40.8354 27.0785 40.7988C26.9448 40.7621 26.8052 40.7522 26.6676 40.7695C26.53 40.7868 26.3972 40.8311 26.2767 40.8997C26.1563 40.9684 26.0505 41.0601 25.9655 41.1696C25.8805 41.2791 25.8178 41.4043 25.7812 41.538C25.7445 41.6718 25.7346 41.8114 25.7519 41.949C25.7692 42.0865 25.8135 42.2194 25.8821 42.3398C25.9508 42.4603 26.0425 42.5661 26.152 42.6511C26.4322 42.869 33.1468 47.9903 44.4735 48.0046C46.9794 48.0519 49.5055 46.5477 50.4831 44.3242C50.5957 44.0678 50.6018 43.7772 50.5002 43.5163C50.3985 43.2555 50.1974 43.0456 49.941 42.9331C49.6846 42.8205 49.394 42.8143 49.1332 42.916C48.8723 43.0177 48.6625 43.2188 48.5499 43.4752C47.8903 44.9392 46.1602 45.9289 44.4761 45.8928Z" fill="black"/>
<path d="M75.5688 40.984C75.516 41.0307 69.1342 45.885 58.5342 45.8929C57.5424 45.906 56.5729 45.5992 55.7693 45.0179C55.2073 44.6268 54.7583 44.0946 54.4674 43.4748C54.4116 43.3479 54.3314 43.2332 54.2313 43.1372C54.1312 43.0413 54.0132 42.966 53.884 42.9156C53.7549 42.8653 53.617 42.8408 53.4784 42.8438C53.3398 42.8467 53.2031 42.8769 53.0761 42.9326C52.9492 42.9884 52.8345 43.0686 52.7385 43.1687C52.6426 43.2687 52.5672 43.3868 52.5169 43.5159C52.4665 43.6451 52.4421 43.783 52.4451 43.9216C52.448 44.0602 52.4782 44.1969 52.5339 44.3238C53.5113 46.5438 56.0307 48.0476 58.5342 48.0043C69.8515 47.9965 76.5909 42.8674 76.8652 42.6507C77.9351 41.7646 76.7035 40.1599 75.5688 40.984Z" fill="black"/>
<path d="M49.9409 59.987C49.6845 59.8744 49.394 59.8683 49.1331 59.97C48.8722 60.0717 48.6624 60.2728 48.5499 60.5292C47.8926 61.9895 46.154 62.992 44.4761 62.9472C33.9257 62.9339 27.5283 58.0998 27.447 58.0375C27.3374 57.9525 27.2122 57.8899 27.0785 57.8532C26.9448 57.8166 26.8052 57.8066 26.6676 57.8239C26.53 57.8413 26.3972 57.8855 26.2767 57.9542C26.1563 58.0228 26.0505 58.1145 25.9655 58.224C25.8805 58.3336 25.8178 58.4588 25.7812 58.5925C25.7445 58.7262 25.7346 58.8659 25.7519 59.0034C25.7692 59.141 25.8135 59.2738 25.8821 59.3943C25.9508 59.5147 26.0425 59.6205 26.152 59.7055C26.4242 59.9219 33.1675 65.0513 44.4828 65.0591C45.9261 65.0733 47.3355 64.6216 48.5017 63.7711C49.3616 63.1621 50.0452 62.3366 50.4831 61.3782C50.5389 61.2513 50.5691 61.1146 50.572 60.9759C50.5749 60.8373 50.5505 60.6995 50.5002 60.5703C50.4498 60.4411 50.3745 60.3231 50.2785 60.223C50.1826 60.1229 50.0679 60.0427 49.9409 59.987Z" fill="black"/>
<path d="M75.5688 58.0384C75.516 58.0851 69.1342 62.9395 58.5342 62.9473C57.5424 62.9606 56.5728 62.6538 55.7693 62.0723C55.2073 61.6813 54.7582 61.1491 54.4674 60.5293C54.4116 60.4023 54.3314 60.2876 54.2313 60.1917C54.1312 60.0957 54.0132 60.0204 53.884 59.97C53.7549 59.9197 53.617 59.8953 53.4784 59.8982C53.3398 59.9011 53.2031 59.9313 53.0761 59.9871C52.9492 60.0428 52.8345 60.123 52.7385 60.2231C52.6426 60.3232 52.5672 60.4412 52.5169 60.5704C52.4665 60.6996 52.4421 60.8374 52.4451 60.976C52.448 61.1147 52.4782 61.2513 52.5339 61.3783C53.5113 63.5985 56.0305 65.102 58.5342 65.0587C69.8515 65.0509 76.5909 59.9218 76.8652 59.7052C77.9351 58.819 76.7035 57.2143 75.5688 58.0384Z" fill="black"/>
<path d="M31.3127 34.6078C31.5053 34.6078 31.6942 34.5549 31.8587 34.4547C34.4229 32.9018 41.842 28.8353 45.3343 28.673C46.7194 28.5687 46.6383 26.544 45.2361 26.5639C40.4934 26.7845 31.1597 32.4096 30.7646 32.649C30.5695 32.7698 30.4189 32.9507 30.3355 33.1645C30.2521 33.3783 30.2405 33.6134 30.3023 33.8344C30.3642 34.0554 30.4962 34.2504 30.6784 34.3898C30.8606 34.5293 31.0833 34.6058 31.3127 34.6078Z" fill="black"/>
<path d="M90.3555 38.3573C90.2254 38.3093 90.0872 38.2874 89.9486 38.2928C89.8101 38.2982 89.674 38.3309 89.5481 38.3889C89.4221 38.447 89.3089 38.5292 89.2148 38.631C89.1207 38.7328 89.0475 38.8522 88.9995 38.9823C88.9723 39.0562 86.2369 46.4065 82.9625 50.0398C82.869 50.1427 82.7967 50.263 82.7498 50.3939C82.703 50.5248 82.6824 50.6636 82.6893 50.8024C82.6962 50.9413 82.7305 51.0774 82.7901 51.203C82.8498 51.3285 82.9336 51.4411 83.0369 51.5342C83.1402 51.6272 83.2608 51.699 83.3919 51.7453C83.5229 51.7916 83.6618 51.8116 83.8007 51.8041C83.9395 51.7966 84.0754 51.7618 84.2007 51.7016C84.3261 51.6414 84.4382 51.5571 84.5309 51.4534C88.0781 47.5167 90.8637 40.0306 90.9807 39.7139C91.0288 39.5838 91.0507 39.4454 91.0453 39.3068C91.0399 39.1682 91.0073 39.032 90.9492 38.906C90.8912 38.78 90.8088 38.6667 90.707 38.5726C90.6051 38.4784 90.4856 38.4053 90.3555 38.3573Z" fill="black"/>
<path d="M41.1321 79.7271C33.153 78.7081 28.4405 75.1282 28.3953 75.0933C28.174 74.9257 27.8956 74.852 27.6203 74.8882C27.345 74.9243 27.0951 75.0675 26.9246 75.2866C26.7541 75.5057 26.6768 75.7832 26.7095 76.0589C26.7421 76.3346 26.882 76.5864 27.0989 76.7597C27.3062 76.921 32.2776 80.7249 40.8654 81.8216C41.0029 81.8392 41.1426 81.8294 41.2764 81.793C41.4101 81.7566 41.5354 81.6942 41.6451 81.6094C41.7547 81.5245 41.8466 81.4189 41.9155 81.2986C41.9843 81.1782 42.0288 81.0455 42.0463 80.908C42.0639 80.7705 42.0542 80.6308 42.0178 80.497C41.9813 80.3633 41.9189 80.238 41.8341 80.1283C41.7493 80.0186 41.6437 79.9268 41.5233 79.8579C41.403 79.7891 41.2702 79.7446 41.1327 79.7271H41.1321Z" fill="black"/>
<path d="M74.6653 75.0921C74.6186 75.1282 69.9063 78.7082 61.927 79.7271C61.7895 79.7447 61.6567 79.7892 61.5364 79.858C61.4161 79.9268 61.3104 80.0187 61.2256 80.1284C61.1408 80.238 61.0784 80.3633 61.0419 80.4971C61.0055 80.6309 60.9958 80.7705 61.0134 80.9081C61.0309 81.0456 61.0754 81.1783 61.1442 81.2987C61.2131 81.419 61.305 81.5246 61.4146 81.6094C61.5243 81.6943 61.6496 81.7567 61.7834 81.7931C61.9171 81.8295 62.0568 81.8392 62.1943 81.8217C70.7815 80.725 75.7529 76.921 75.9608 76.7597C76.0704 76.6747 76.1621 76.5689 76.2307 76.4485C76.2994 76.328 76.3436 76.1952 76.3609 76.0576C76.3783 75.92 76.3683 75.7804 76.3317 75.6467C76.295 75.513 76.2324 75.3878 76.1474 75.2782C76.0624 75.1687 75.9566 75.077 75.8361 75.0084C75.7157 74.9397 75.5828 74.8955 75.4453 74.8781C75.3077 74.8608 75.1681 74.8708 75.0343 74.9074C74.9006 74.944 74.7754 75.0067 74.6659 75.0917L74.6653 75.0921Z" fill="black"/>
<path d="M71.2018 34.4547C72.4081 35.1405 73.472 33.4144 72.296 32.649C71.9009 32.4095 62.5673 26.7845 57.8246 26.5638C56.4343 26.5463 56.3297 28.5612 57.7265 28.6729C61.219 28.8353 68.6379 32.9017 71.2018 34.4547Z" fill="black"/>
<path d="M17.1993 17.8739H20.2642C21.6588 17.8317 21.6601 15.8047 20.2642 15.7625H17.1993C15.8047 15.8053 15.8034 17.8308 17.1993 17.8739Z" fill="black"/>
<path d="M82.752 17.8739H85.8172C87.2107 17.8317 87.213 15.8047 85.8172 15.7625H82.752C81.3574 15.8053 81.3561 17.8308 82.752 17.8739Z" fill="black"/>
<path d="M51.5206 72.4299C51.2406 72.4299 50.972 72.5412 50.7741 72.7391C50.5761 72.9371 50.4648 73.2057 50.4648 73.4856V76.5506C50.5071 77.9452 52.534 77.9465 52.5763 76.5506V73.4856C52.5763 73.2057 52.465 72.9371 52.2671 72.7391C52.0691 72.5412 51.8006 72.4299 51.5206 72.4299Z" fill="black"/>
</svg>
