<svg width="24" height="24" viewBox="0 0 24 24" fill="none" xmlns="http://www.w3.org/2000/svg">
<mask id="mask0_1065_226" style="mask-type:alpha" maskUnits="userSpaceOnUse" x="0" y="0" width="24" height="24">
<rect width="24" height="24" fill="#D9D9D9"/>
</mask>
<g mask="url(#mask0_1065_226)">
<path d="M18.1248 22.3754C17.2084 22.3754 16.4334 22.0546 15.7998 21.413C15.1666 20.771 14.85 20 14.85 19.1C14.85 18.9836 14.8624 18.8462 14.8872 18.6878C14.9124 18.5294 14.9416 18.3836 14.9748 18.2504L8.175 14.2754C7.875 14.5754 7.5292 14.817 7.1376 15.0002C6.746 15.1834 6.3334 15.275 5.8998 15.275C4.9998 15.275 4.229 14.9542 3.5874 14.3126C2.9458 13.671 2.625 12.9002 2.625 12.0002C2.625 11.1002 2.9458 10.3294 3.5874 9.6878C4.229 9.0462 4.9998 8.7254 5.8998 8.7254C6.3334 8.7254 6.7418 8.8086 7.125 8.975C7.5082 9.1418 7.8582 9.3752 8.175 9.6752L14.9748 5.75C14.9416 5.6168 14.9124 5.4752 14.8872 5.3252C14.8624 5.1752 14.85 5.0336 14.85 4.9004C14.85 4.0004 15.1708 3.2296 15.8124 2.588C16.454 1.946 17.2248 1.625 18.1248 1.625C19.0248 1.625 19.7916 1.946 20.4252 2.588C21.0584 3.2296 21.375 4.0004 21.375 4.9004C21.375 5.8004 21.0584 6.5712 20.4252 7.2128C19.7916 7.8544 19.0166 8.1752 18.1002 8.1752C17.6834 8.1752 17.2792 8.1044 16.8876 7.9628C16.496 7.8212 16.1584 7.6004 15.8748 7.3004L9.0498 11.1002C9.0834 11.2334 9.1126 11.3876 9.1374 11.5628C9.1626 11.7376 9.1752 11.8834 9.1752 12.0002C9.1752 12.117 9.1626 12.2462 9.1374 12.3878C9.1126 12.5294 9.0834 12.6668 9.0498 12.8L15.8748 16.6754C16.1584 16.4086 16.4876 16.2002 16.8624 16.0502C17.2376 15.9002 17.6502 15.8252 18.1002 15.8252C19.0166 15.8252 19.7916 16.146 20.4252 16.7876C21.0584 17.4292 21.375 18.2 21.375 19.1C21.375 20 21.0584 20.771 20.4252 21.413C19.7916 22.0546 19.0248 22.3754 18.1248 22.3754ZM18.1248 6.125C18.4748 6.125 18.7666 6.0084 19.0002 5.7752C19.2334 5.542 19.35 5.2504 19.35 4.9004C19.35 4.5504 19.2334 4.2586 19.0002 4.025C18.7666 3.7918 18.4748 3.6752 18.1248 3.6752C17.7748 3.6752 17.479 3.7918 17.2374 4.025C16.9958 4.2586 16.875 4.5504 16.875 4.9004C16.875 5.2504 16.9958 5.542 17.2374 5.7752C17.479 6.0084 17.7748 6.125 18.1248 6.125ZM5.8998 13.2254C6.2498 13.2254 6.5416 13.1086 6.7752 12.875C7.0084 12.6418 7.125 12.3502 7.125 12.0002C7.125 11.6502 7.0084 11.3586 6.7752 11.1254C6.5416 10.8918 6.2498 10.775 5.8998 10.775C5.5498 10.775 5.2582 10.8918 5.025 11.1254C4.7918 11.3586 4.6752 11.6502 4.6752 12.0002C4.6752 12.3502 4.7918 12.6418 5.025 12.875C5.2582 13.1086 5.5498 13.2254 5.8998 13.2254ZM18.1248 20.3252C18.4748 20.3252 18.7666 20.2086 19.0002 19.9754C19.2334 19.7418 19.35 19.45 19.35 19.1C19.35 18.75 19.2334 18.4584 19.0002 18.2252C18.7666 17.992 18.4748 17.8754 18.1248 17.8754C17.7748 17.8754 17.479 17.992 17.2374 18.2252C16.9958 18.4584 16.875 18.75 16.875 19.1C16.875 19.45 16.9958 19.7418 17.2374 19.9754C17.479 20.2086 17.7748 20.3252 18.1248 20.3252Z" fill="black"/>
</g>
</svg>
